<?xml version="1.0" encoding="UTF-8" standalone="no"?>
<!DOCTYPE svg PUBLIC "-//W3C//DTD SVG 1.1//EN" "http://www.w3.org/Graphics/SVG/1.1/DTD/svg11.dtd">
<!-- Created with Vectornator (http://vectornator.io/) -->
<svg height="100%" stroke-miterlimit="10" style="fill-rule:nonzero;clip-rule:evenodd;stroke-linecap:round;stroke-linejoin:round;" version="1.1" viewBox="0 0 2048 2048" width="100%" xml:space="preserve" xmlns="http://www.w3.org/2000/svg" xmlns:vectornator="http://vectornator.io" xmlns:xlink="http://www.w3.org/1999/xlink">
<defs/>
<g id="Слой-1" vectornator:layerName="Слой 1">
<g opacity="1">
<path d="M119.919 661.259L281.16 1050L286.674 1386.25L434.311 1386.25L438.144 1050L606.8 661.259L438.144 661.259L358.67 914.338L281.16 661.259L119.919 661.259Z" fill="#ffffff" fill-rule="nonzero" opacity="1" stroke="none"/>
<path d="M824.755 1008.1C895.437 1005.67 886.503 1075.66 885.28 1140.01C884.041 1205.24 876.999 1258.74 826.642 1256.49C774.991 1254.18 764.273 1196.35 764.273 1131.71C764.273 1066.47 764.879 1010.17 824.755 1008.1ZM818.175 870.078C775.81 871.065 606.805 889.753 614.512 1125.59C623.32 1395.12 832.971 1386.34 832.971 1386.34C832.971 1386.34 1028.05 1408.28 1035.54 1127.35C1042.59 863.107 827.69 870.162 827.69 870.162C827.69 870.162 824.227 869.936 818.175 870.078Z" fill="#ffffff" fill-rule="nonzero" opacity="1" stroke="none"/>
<path d="M1135.15 883.13L1135.15 1221.83C1135.15 1221.83 1141.92 1382.09 1332.92 1383.09C1506.92 1384 1520.29 1221.83 1520.29 1221.83L1520.29 883.13L1366.23 883.13L1366.92 1218.09C1366.92 1218.09 1367.7 1251.18 1329.71 1253.8C1281.92 1257.09 1281.76 1220.86 1281.76 1220.86L1276.19 883.13L1135.15 883.13Z" fill="#ffffff" fill-rule="nonzero" opacity="1" stroke="none"/>
<path d="M1643.78 883.13L1646.82 1386.25L1776.03 1386.25L1781.93 1099.79C1781.93 1099.79 1785.4 1059.51 1816.94 1034.82C1855.88 1004.34 1928.08 1023.89 1928.08 1023.89L1927 869.728C1927 869.728 1888.68 857.011 1855.04 879.041C1821.4 901.072 1781.38 963.705 1781.38 963.705L1780.53 883.274L1643.78 883.13Z" fill="#ffffff" fill-rule="nonzero" opacity="1" stroke="none"/>
<path d="M1365.77 890.359C1365.77 890.359 1366.96 682.926 1572.5 686.309C1791.95 689.921 1780.5 897.899 1780.5 897.899L1643.51 896.464C1643.51 896.464 1652.21 818.905 1578.19 820.688C1514.85 822.215 1520.14 892.161 1520.14 892.161L1365.77 890.359Z" fill="#ffffff" fill-rule="nonzero" opacity="1" stroke="none"/>
</g>
</g>
</svg>
